<?xml version="1.0" standalone="no"?>
<!DOCTYPE svg PUBLIC "-//W3C//DTD SVG 20010904//EN"
 "http://www.w3.org/TR/2001/REC-SVG-20010904/DTD/svg10.dtd">
<svg version="1.0" xmlns="http://www.w3.org/2000/svg"
 width="1790.000000pt" height="1790.000000pt" viewBox="0 0 1790.000000 1790.000000"
 preserveAspectRatio="xMidYMid meet">
<metadata>
Created by potrace 1.14, written by Peter Selinger 2001-2017
</metadata>
<g transform="translate(0.000000,1790.000000) scale(0.100000,-0.100000)"
fill="#000000" stroke="none">
<path d="M10350 15579 c-139 -36 -204 -63 -290 -120 -171 -114 -300 -317 -327
-514 -64 -461 271 -865 730 -879 157 -5 290 30 424 111 170 103 290 269 342
470 28 108 24 296 -9 398 -47 148 -143 289 -258 381 -67 53 -192 116 -277 140
-68 19 -281 27 -335 13z"/>
<path d="M7445 14940 c-80 -23 -121 -42 -175 -80 -188 -134 -278 -387 -215
-606 55 -193 227 -352 425 -393 235 -48 491 75 601 289 12 25 24 50 26 55 28
99 33 133 34 206 1 221 -144 432 -349 509 -118 44 -238 51 -347 20z"/>
<path d="M13470 14660 c-217 -45 -412 -171 -546 -353 -143 -193 -200 -450
-154 -696 13 -70 52 -186 80 -236 10 -18 24 -43 32 -56 50 -88 168 -214 264
-280 72 -49 204 -107 295 -129 469 -111 943 168 1073 630 42 151 42 330 -2
490 -79 293 -331 538 -637 620 -110 29 -290 34 -405 10z"/>
<path d="M11437 13104 c-1 -1 -40 -5 -87 -8 -47 -3 -98 -8 -115 -11 -16 -3
-59 -10 -95 -16 -253 -42 -568 -151 -771 -268 -39 -23 -73 -41 -75 -41 -3 0
-46 -28 -97 -61 -120 -80 -263 -196 -325 -264 l-50 -54 -108 60 c-221 124
-468 244 -665 324 -63 25 -122 50 -131 55 -10 6 -26 10 -36 10 -10 0 -22 4
-28 9 -8 7 -206 75 -253 87 -9 2 -86 22 -171 44 -144 37 -261 60 -370 75 -25
3 -63 8 -85 12 -82 13 -116 14 -340 18 -126 1 -268 -1 -315 -6 -47 -6 -92 -10
-100 -11 -8 0 -49 -6 -90 -14 -41 -7 -91 -16 -110 -19 -19 -3 -69 -15 -110
-26 -41 -11 -84 -22 -94 -24 -129 -30 -412 -149 -597 -253 -158 -88 -412 -275
-513 -377 -186 -188 -352 -433 -443 -655 -59 -141 -103 -294 -118 -405 -4 -27
-11 -77 -15 -110 -8 -58 -6 -374 3 -425 2 -14 8 -50 12 -80 51 -391 268 -887
559 -1280 23 -30 47 -61 54 -68 15 -17 16 -10 -14 -78 -24 -54 -100 -257 -110
-294 -70 -265 -92 -428 -89 -660 2 -102 6 -198 9 -215 4 -16 13 -68 22 -113
54 -296 219 -599 456 -834 334 -332 894 -608 1368 -674 141 -19 195 -22 350
-19 96 2 191 6 210 10 19 3 62 11 95 16 480 82 922 362 1227 779 93 128 165
258 258 465 53 120 125 400 146 571 49 396 -187 758 -693 1062 -159 96 -458
234 -602 277 l-24 7 22 -31 c56 -78 248 -527 281 -655 110 -432 -80 -881 -455
-1078 -262 -137 -589 -97 -857 105 -76 57 -212 188 -273 262 -61 76 -150 213
-196 305 -46 93 -113 278 -124 342 -3 18 -8 40 -10 48 -37 129 -39 453 -6 640
6 30 12 66 15 80 38 220 168 541 323 799 210 348 435 597 673 746 185 116 542
245 750 272 19 2 60 8 90 14 176 30 597 32 795 4 17 -3 48 -7 70 -10 36 -5 84
-13 180 -31 144 -26 410 -109 580 -180 233 -98 576 -300 727 -429 13 -11 48
-40 78 -65 218 -179 474 -468 641 -725 251 -384 435 -864 504 -1317 32 -204
40 -312 39 -533 0 -166 -9 -372 -18 -420 -3 -19 -11 -75 -22 -155 -48 -357
-207 -828 -383 -1135 -180 -313 -323 -501 -565 -740 -72 -72 -147 -144 -166
-161 -106 -91 -362 -276 -455 -328 -16 -9 -57 -33 -90 -52 -177 -103 -462
-227 -685 -298 -170 -54 -170 -54 -240 -71 -36 -9 -74 -18 -85 -21 -34 -8
-268 -53 -310 -59 -23 -3 -50 -7 -61 -9 -11 -2 -53 -7 -93 -11 -40 -3 -81 -8
-90 -10 -124 -24 -803 -24 -930 0 -9 1 -50 6 -91 10 -41 3 -86 8 -100 10 -14
2 -74 11 -135 20 -227 33 -502 94 -850 189 -161 44 -644 218 -814 292 -82 36
-98 43 -131 57 -85 36 -335 157 -568 276 -93 46 -480 271 -632 365 -717 446
-1619 644 -2465 540 -356 -44 -735 -166 -1020 -328 -318 -181 -594 -454 -764
-756 -42 -73 -111 -220 -111 -234 0 -7 -4 -16 -9 -21 -32 -36 -128 -398 -146
-555 -3 -30 -8 -66 -10 -80 -22 -146 -22 -432 1 -685 6 -73 43 -333 51 -358 3
-11 6 -29 8 -40 3 -20 18 -95 29 -142 2 -11 11 -49 19 -85 30 -128 48 -185 64
-197 55 -42 96 7 328 392 191 316 301 482 437 660 248 323 567 600 843 729
291 137 612 175 930 111 319 -64 664 -233 1000 -490 433 -331 702 -504 1080
-695 288 -145 463 -220 775 -333 141 -51 560 -177 638 -192 10 -2 47 -10 83
-19 85 -21 82 -21 249 -56 189 -39 276 -56 404 -76 21 -3 46 -7 55 -9 9 -1 52
-8 96 -15 44 -6 91 -13 105 -16 14 -2 48 -6 75 -9 28 -3 59 -7 70 -9 23 -4
100 -14 165 -21 25 -2 65 -7 90 -10 118 -12 139 -15 200 -20 36 -3 85 -8 110
-10 25 -2 81 -7 125 -10 44 -3 103 -7 130 -10 71 -6 414 -25 560 -30 563 -21
905 -21 1080 -1 17 2 57 7 90 10 103 12 286 45 445 81 294 67 654 201 995 370
180 90 277 144 534 301 139 85 530 372 666 489 17 14 70 61 120 103 284 244
610 583 899 932 42 52 280 371 302 405 10 17 21 32 24 35 7 7 137 207 190 295
116 190 249 447 317 615 18 47 38 94 44 105 45 93 129 428 145 575 10 98 11
323 3 423 -36 403 -191 841 -448 1263 -127 210 -323 470 -473 629 l-75 79 19
46 c83 189 174 526 203 745 26 206 27 657 1 737 -3 7 -7 31 -10 53 -53 413
-288 894 -603 1236 -178 194 -299 294 -439 366 -330 170 -682 289 -974 328
-25 3 -56 8 -70 10 -79 13 -434 28 -443 19z"/>
<path d="M15730 12159 c-121 -14 -145 -18 -225 -44 -110 -35 -175 -67 -274
-133 -247 -163 -416 -433 -459 -732 -19 -130 1 -348 44 -479 43 -131 156 -312
257 -413 147 -147 355 -254 568 -292 79 -14 290 -16 345 -3 12 3 37 8 55 11
48 7 153 43 226 76 146 66 299 191 400 327 29 40 53 75 53 78 0 4 8 19 19 33
29 41 79 167 101 251 62 245 41 484 -61 708 -92 201 -268 388 -459 490 -181
96 -402 142 -590 122z"/>
<path d="M2105 12133 c-164 -25 -233 -61 -362 -190 -121 -122 -144 -131 -258
-105 -64 14 -164 17 -230 7 -159 -26 -326 -149 -397 -292 -113 -231 36 -561
392 -864 119 -102 415 -319 434 -319 2 0 28 -16 58 -35 64 -43 341 -181 382
-191 l29 -7 -6 154 c-7 176 -10 203 -38 354 -49 264 -132 502 -267 765 -50 98
-34 83 46 -45 127 -204 283 -552 318 -710 1 -5 10 -39 19 -75 9 -36 19 -74 21
-85 6 -29 32 -184 38 -223 2 -19 6 -35 8 -37 5 -6 72 129 117 236 82 195 169
485 206 687 3 15 7 38 10 52 21 95 28 377 12 475 -30 193 -117 335 -244 398
-76 38 -210 61 -288 50z"/>
<path d="M3515 11468 c-64 -8 -158 -39 -210 -68 -18 -10 -43 -24 -56 -32 -259
-147 -618 -583 -829 -1008 -65 -130 -90 -187 -90 -205 0 -10 28 -12 123 -10
121 3 228 11 277 20 14 3 39 7 55 9 112 18 189 36 325 76 141 42 321 115 465
189 65 33 114 56 109 51 -50 -48 -439 -263 -534 -295 -3 -1 -18 -7 -35 -14
-119 -51 -343 -118 -470 -142 -38 -7 -72 -14 -75 -14 -3 -1 -32 -5 -65 -9 -93
-12 -94 -14 -24 -50 264 -138 731 -281 1024 -313 79 -9 276 -9 345 0 241 31
404 145 449 314 58 219 4 426 -149 568 -30 28 -68 65 -87 83 -33 34 -58 99
-49 130 25 81 30 277 9 341 -55 173 -190 322 -329 365 -68 20 -109 24 -179 14z"/>
<path d="M768 10465 c-2 -1 -39 -5 -83 -9 -89 -7 -91 -8 -155 -25 -208 -57
-311 -150 -355 -319 -30 -119 -15 -285 36 -384 34 -67 94 -141 168 -206 87
-77 99 -113 77 -217 -20 -93 -14 -242 11 -317 30 -86 81 -163 154 -232 155
-147 320 -164 545 -55 164 79 335 230 512 452 85 107 225 303 258 362 118 209
158 286 210 410 l16 38 -164 -6 c-166 -7 -181 -8 -303 -28 -146 -23 -399 -91
-500 -134 -175 -74 -241 -103 -305 -137 -103 -54 -53 -12 82 68 122 72 212
119 339 175 125 55 371 135 469 153 14 2 36 7 50 10 14 3 36 8 50 10 14 2 41
7 60 10 19 3 53 8 74 11 22 3 42 7 44 9 6 7 -139 76 -263 126 -153 61 -327
119 -405 135 -8 2 -15 4 -15 5 0 2 -12 5 -50 13 -11 3 -58 14 -105 25 -47 11
-105 23 -130 27 -25 4 -54 9 -65 11 -11 2 -60 7 -110 10 -49 3 -102 7 -117 9
-15 1 -29 1 -30 0z"/>
<path d="M2334 9818 c3 -84 7 -164 10 -178 2 -14 7 -50 11 -80 5 -46 24 -146
42 -225 2 -11 6 -31 9 -45 18 -87 126 -377 189 -505 40 -82 72 -151 71 -152
-1 -1 -20 26 -43 60 -137 206 -263 473 -332 705 -49 167 -94 381 -95 460 0 12
-1 22 -3 22 -6 0 -94 -181 -128 -263 -57 -138 -124 -351 -165 -522 -57 -237
-64 -294 -64 -480 -1 -165 7 -224 41 -325 52 -156 131 -245 261 -293 89 -32
260 -33 352 -2 106 36 157 71 260 176 85 87 100 98 140 104 28 4 69 1 108 -8
60 -14 197 -16 251 -3 181 41 351 189 397 343 48 164 -10 346 -181 568 -160
207 -526 492 -860 671 -75 40 -259 124 -272 124 -3 0 -3 -69 1 -152z"/>
<path d="M16349 8396 c-2 -2 -33 -6 -69 -10 -143 -13 -331 -71 -470 -144 -220
-115 -433 -316 -553 -520 -94 -160 -161 -358 -184 -542 -13 -103 -6 -329 13
-419 63 -301 179 -517 389 -726 223 -223 447 -334 795 -395 82 -14 351 -6 445
14 573 121 994 554 1095 1126 20 111 25 339 10 422 -5 23 -10 57 -13 73 -47
293 -241 614 -496 820 -169 136 -432 256 -619 281 -26 3 -50 8 -54 10 -9 6
-283 15 -289 10z"/>
</g>
</svg>
